<svg id="renarte-logo" data-name="renarte-logo" xmlns="http://www.w3.org/2000/svg" style='display: none;' viewBox="0 0 850.39 95.96"><title>renarte_logo</title><path d="M466.56,96h13.57L444.35,0H406.14L370.36,96h13.57l13.52-36.74H453.2ZM401.69,47.7,414.8,12.06H436L449,47.7Z"/><polygon points="641.21 0 641.21 12.06 680.89 12.06 680.89 95.95 693.5 95.95 693.5 12.06 733.19 12.06 733.19 0 641.21 0"/><polygon points="209.29 12.06 209.29 0 128.17 0 128.17 95.95 209.29 95.95 209.29 83.89 140.92 83.89 140.92 64.23 140.92 53.94 209.29 53.94 209.29 42.01 140.92 42.01 140.92 12.06 209.29 12.06"/><path d="M94.83,96,72.22,57.59A29.77,29.77,0,0,0,86.53,46.76a28.38,28.38,0,0,0,5.55-17,28.55,28.55,0,0,0-8.77-21A28.86,28.86,0,0,0,62.2,0H0V96H12.75V59.22H59.21L80.71,96ZM12.75,12.06H62.2a16.23,16.23,0,0,1,12.13,5.19,17.43,17.43,0,0,1,5,12.56,17.68,17.68,0,0,1-5,12.64A16.14,16.14,0,0,1,62.2,47.7H12.75Z"/><path d="M510.3,96l22.61-38.36a29.75,29.75,0,0,1-14.32-10.83,28.38,28.38,0,0,1-5.55-17,28.55,28.55,0,0,1,8.77-21A28.88,28.88,0,0,1,542.92,0h62.2V96H592.37V59.22H545.91L524.41,96Zm82.07-83.89H542.92a16.23,16.23,0,0,0-12.13,5.19,17.42,17.42,0,0,0-5,12.56,17.67,17.67,0,0,0,5,12.64,16.14,16.14,0,0,0,12.13,5.25h49.45Z"/><polygon points="850.39 12.06 850.39 0 769.28 0 769.28 95.95 850.39 95.95 850.39 83.89 782.02 83.89 782.02 53.94 850.39 53.94 850.39 42.01 782.02 42.01 782.02 12.06 850.39 12.06"/><polygon points="337.45 0 324.7 0 324.7 76.59 258.12 0 258.12 0 245.37 0 245.37 95.95 258.12 95.95 258.12 19.37 324.7 95.96 324.7 95.95 337.45 95.95 337.45 0"/></svg>