<svg width="700pt" height="700pt" version="1.1" viewBox="0 0 700 700" xmlns="http://www.w3.org/2000/svg">
 <path d="m467.39 194.07c-8.125-35.75-32.098-65.852-65.125-81.77-33.027-15.918-71.504-15.918-104.53 0-33.027 15.918-57 46.02-65.125 81.77-34.742 4.1836-65.699 23.945-84.113 53.699-18.418 29.758-22.297 66.277-10.539 99.238 11.754 32.961 37.867 58.785 70.957 70.172 0.44922 0.089844 0.90625 0.14844 1.3672 0.17578 22.75 23.871 62.387 42.262 139.72 42.262s116.88-18.359 139.65-42.211c0.48437-0.03125 0.96484-0.10938 1.4375-0.22656 33.09-11.387 59.203-37.211 70.957-70.172 11.758-32.961 7.8789-69.48-10.539-99.238-18.414-29.754-49.371-49.516-84.113-53.699zm-117.39 248.05c-90.176 0-123.02-24.922-140.18-54.566 26.039 0.82422 82.094 6.8945 105.54 42.559 2.4531 3.8164 7.4141 5.125 11.426 3.0195 4.0156-2.1094 5.7578-6.9375 4.0078-11.121-13.938-41-6.7539-86.238 19.199-120.91 25.973 34.656 33.176 79.898 19.25 120.91-1.7461 4.1836-0.007812 9.0117 4.0078 11.121 4.0156 2.1055 8.9766 0.79688 11.426-3.0195 23.449-35.664 79.504-41.738 105.54-42.559-17.203 29.645-50.051 54.566-140.23 54.566zm159.7-54.109c0.91016-1.8711 1.75-3.7461 2.6602-5.6172v-0.003906c1.1523-2.6172 0.94922-5.6289-0.53906-8.0703-1.4922-2.4414-4.0781-4-6.9336-4.1797-3.3086-0.21094-69.141-3.5-112.21 27.176l0.003906 0.003906c4.7734-42.004-8.2695-84.086-35.965-116.02-1.7188-1.8984-4.1602-2.9844-6.7188-2.9844s-5 1.0859-6.7188 2.9844c-27.695 31.938-40.738 74.02-35.965 116.02-43.066-30.73-108.9-27.406-112.21-27.176l0.003906-0.003906c-2.8555 0.17969-5.4414 1.7383-6.9336 4.1797-1.4883 2.4414-1.6914 5.4531-0.53906 8.0703 0.83984 1.8711 1.75 3.7461 2.6602 5.6172v0.003907c-22.227-15.57-36.953-39.703-40.633-66.586-3.6797-26.887 4.0195-54.09 21.246-75.055 17.227-20.969 42.418-33.801 69.504-35.41 4.0898-0.23047 7.4727-3.2695 8.1367-7.3125 5.4414-32.234 25.875-59.961 55.051-74.703 29.176-14.742 63.621-14.742 92.797 0 29.176 14.742 49.609 42.469 55.051 74.703 0.66406 4.043 4.0469 7.082 8.1367 7.3125 27.086 1.6094 52.277 14.441 69.504 35.41 17.227 20.965 24.926 48.168 21.246 75.055-3.6797 26.883-18.406 51.016-40.633 66.586z"/>
</svg>
