<svg id="katman_1" data-name="katman 1" xmlns="http://www.w3.org/2000/svg" viewBox="0 0 50 50"><title>cotton-line</title><path d="M38.42,15.18a13.76,13.76,0,0,0-26.84,0,13.15,13.15,0,0,0-2.71,25.5l.16,0c2.6,2.73,7.13,4.83,16,4.83s13.36-2.1,16-4.82l.17,0a13.16,13.16,0,0,0-2.71-25.5ZM25,43.53c-10.31,0-14.06-2.85-16-6.24,3,.1,9.38.79,12.06,4.87a1,1,0,0,0,1.31.34,1,1,0,0,0,.45-1.27A15,15,0,0,1,25,27.41a15,15,0,0,1,2.2,13.82,1,1,0,0,0,1.76.93c2.68-4.08,9.09-4.77,12.07-4.87-2,3.39-5.72,6.24-16,6.24Zm18.25-6.18c.11-.22.2-.43.31-.65h0a1,1,0,0,0-.86-1.4c-.38,0-7.9-.4-12.82,3.11h0a17.31,17.31,0,0,0-4.11-13.26,1,1,0,0,0-1.54,0,17.31,17.31,0,0,0-4.11,13.26C15.2,34.9,7.67,35.28,7.3,35.3h0a1,1,0,0,0-.86,1.4c.1.22.2.43.31.65h0a11.14,11.14,0,0,1,5.72-20.24,1,1,0,0,0,.93-.84,11.76,11.76,0,0,1,23.19,0,1,1,0,0,0,.93.84,11.13,11.13,0,0,1,5.73,20.24Z"/></svg>