<svg id="katman_1" data-name="katman 1" xmlns="http://www.w3.org/2000/svg" viewBox="0 0 50 50"><title>fire-sharp</title><path d="M38.58,44.68a19.87,19.87,0,0,0,1.7-3.46c3.62-9.51-1.93-18.17-2.15-18.46-.29,8.72-6.23,10.93-6.57,11.05.22-.29,4.81-6,4.36-17.16C35.46,5.89,26,.57,24.88,0c.9.57,1.3,2.66,1.3,2.66C27.82,10.08,19,17,19,17c-23,21.52-1.3,32.68-.79,33C18,49.6,11.06,35.73,23,28c-.06.23-1.36,4,4.25,10.76a11.18,11.18,0,0,1,1.53,8.83A7.88,7.88,0,0,0,32,40.09c.23.23,3.91,5,1.7,9.85.29-.17,3.8-3.11,4.93-5.26Z"/></svg>