<svg id="katman_1" data-name="katman 1" xmlns="http://www.w3.org/2000/svg" viewBox="0 0 50 50"><title>fire-stroke</title><path d="M39.24,45.08A19.57,19.57,0,0,0,41,41.53c3-7.91-.16-15.25-1.59-17.9a.37.37,0,0,0-.7.15c-.54,5.69-3.54,8.37-5.33,9.48a.38.38,0,0,1-.52-.52c1.39-2.26,4-7.73,3.66-16.42C36.05,5.28,26.29-.83,26.24.09A9.1,9.1,0,0,0,26.52,2c1.67,7.54-7.16,14.63-7.32,14.75h0c-20.72,19.4-6,30.59-1.83,33.21a.37.37,0,0,0,.54-.46c-1.42-3.4-4.88-14.22,4.56-21a.39.39,0,0,1,.6.34c-.13,1.5.19,5,4.51,10.19a11.33,11.33,0,0,1,1.74,8.11.37.37,0,0,0,.63.32,8.17,8.17,0,0,0,2.54-5.85.37.37,0,0,1,.69-.19,10.37,10.37,0,0,1,1.47,7.81.37.37,0,0,0,.61.37,20.3,20.3,0,0,0,4-4.52Z"/></svg>