<svg id="katman_1" data-name="katman 1" xmlns="http://www.w3.org/2000/svg" viewBox="0 0 50 50"><title>fire-stroke-smooth</title><path d="M39.1,11.78a1.14,1.14,0,0,0-2,.8A12.25,12.25,0,0,1,33,22.12C34.56,12.89,31.92,2.39,24.93.06a1.12,1.12,0,0,0-1,.16,1.13,1.13,0,0,0-.48.92c0,7.13-4.46,11-9.17,15.14-3.83,3.33-7.78,6.78-9.1,12C3,36.9,5.75,43.33,13.54,48a1.14,1.14,0,0,0,1.63-1.43c-3.19-7.65-.9-16.81,6-21.38,0,6.86,4.58,6.86,4.58,13.73h0a7.14,7.14,0,0,0,6.86-4.58c4.58,2.29,4.58,9.15-.71,13.49l-.24.18h0a1.14,1.14,0,0,0,.75,2l.23,0c6.21-1.29,11.15-6.17,13.21-13A25.38,25.38,0,0,0,39.1,11.78Z"/></svg>