<svg id="katman_1" data-name="katman 1" xmlns="http://www.w3.org/2000/svg" viewBox="0 0 50 50"><title>fire-line</title><path d="M44.19,31.74a51.24,51.24,0,0,0-1.89-9.57A50.44,50.44,0,0,0,38.59,13a1,1,0,0,0-1.69-.12,9.41,9.41,0,0,0-1.15,4.47,23.59,23.59,0,0,1-.42,3,8.07,8.07,0,0,1-1.81,3.45c.06-.3.13-.61.19-.94a26.62,26.62,0,0,0,.19-9.31A19.57,19.57,0,0,0,32.46,8.9,20.15,20.15,0,0,0,30,4.78C27.92,2.1,25.4.4,22.92,0a1,1,0,0,0-1.1.67,2.18,2.18,0,0,0-.07.79,28.25,28.25,0,0,1-5,15.54,17.8,17.8,0,0,1-4.09,4,21.57,21.57,0,0,0-4.21,4,14.45,14.45,0,0,0-2.69,6.87c0,.05,0,.09,0,.14a16.91,16.91,0,0,0,1.52,7,17.91,17.91,0,0,0,4.13,5.72,19.21,19.21,0,0,0,6.11,3.84A20.06,20.06,0,0,0,25,50h0a20.15,20.15,0,0,0,7.43-1.41,19.26,19.26,0,0,0,6.12-3.84A17.8,17.8,0,0,0,42.7,39a16.92,16.92,0,0,0,1.53-7,1.09,1.09,0,0,0,0-.26ZM17.36,39.45c0-4.72,4.56-8.9,6.87-10.72.41,2.2,1.56,5.86,4.72,7.32l1.13.49c1.86.79,2.56,1.09,2.56,2.91,0,7-4,8.52-7.49,8.56h-.27c-3.46,0-7.52-1.56-7.52-8.56Zm15.51,6.79a12,12,0,0,0,1.76-6.79,4.26,4.26,0,0,0-1.16-3.24,8,8,0,0,0-2.62-1.5c-.34-.14-.69-.29-1.06-.47-3.47-1.6-3.79-7.3-3.8-7.36a1,1,0,0,0-.54-.83,1,1,0,0,0-1,.05A28.22,28.22,0,0,0,20,29.91a20.12,20.12,0,0,0-3.12,4.19,11.31,11.31,0,0,0-1.47,5.35,12,12,0,0,0,1.76,6.8A16,16,0,0,1,7.76,32.07c.76-5.27,3.38-7.33,6.14-9.5a19.61,19.61,0,0,0,4.52-4.45A31.51,31.51,0,0,0,23,7.63a27.83,27.83,0,0,0,.71-5.36A10.87,10.87,0,0,1,28.43,6a18.64,18.64,0,0,1,3.51,7.88,24.6,24.6,0,0,1-.18,8.56,28.35,28.35,0,0,1-1,3.94,1,1,0,0,0,1.44,1.2c.17-.1,4.15-2.54,5.09-6.81a28.46,28.46,0,0,0,.46-3.27c.05-.52.1-1,.16-1.46a51.26,51.26,0,0,1,4.34,16.05.15.15,0,0,0,0,.07,16,16,0,0,1-9.37,14.08Z"/></svg>