<svg id="katman_1" data-name="katman 1" xmlns="http://www.w3.org/2000/svg" viewBox="0 0 50 50"><title>fire-line-smoot</title><path d="M43.73,26.54a15.51,15.51,0,0,0-7.17-10.22,12.85,12.85,0,0,1-3.77-3.5A13.67,13.67,0,0,1,31.3,9.54a12.89,12.89,0,0,1-.73-4.26,13.28,13.28,0,0,1,.24-2.44V1.42l-.12-.25V1.05L30.53.82,30.39.65,30.2.49,30,.33,29.55.19l-.21-.1L29.11,0H27.76L27.5.09h-.37A21.31,21.31,0,0,0,19,8.73a21.44,21.44,0,0,0-1.68,4.16,20.8,20.8,0,0,0-.77,5.61v.77a14.92,14.92,0,0,1-1.62-2.79c-.19-.43-.36-.87-.51-1.31a2.45,2.45,0,0,0-.74-1.1,2.48,2.48,0,0,0-1.2-.57,2.61,2.61,0,0,0-1.33.11,2.52,2.52,0,0,0-1.07.78,25.74,25.74,0,0,0-5.26,13,17.73,17.73,0,0,0-.28,2.82v.26a19.8,19.8,0,0,0,39.59,0v-.3a23.32,23.32,0,0,0-.22-2.77,8.49,8.49,0,0,0-.14-.88Zm-4.66,3.84a15.15,15.15,0,0,1-1.19,5.67A14.78,14.78,0,0,1,9.51,30.38v-.19A15.73,15.73,0,0,1,9.69,28a21.62,21.62,0,0,1,2-6.9,20.08,20.08,0,0,0,7.68,7,2.52,2.52,0,0,0,2.86-.4,2.52,2.52,0,0,0,.6-2.81,16.19,16.19,0,0,1-1.32-6.4,16.78,16.78,0,0,1,.58-4.28,15.4,15.4,0,0,1,1.21-3.08,15.83,15.83,0,0,1,2.37-3.42,17.72,17.72,0,0,0,.82,3.51A18,18,0,0,0,34,20.64a10.49,10.49,0,0,1,4.84,6.9v.56A16.52,16.52,0,0,1,39,30.21Z"/></svg>