<svg id="katman_1" data-name="katman 1" xmlns="http://www.w3.org/2000/svg" viewBox="0 0 50 50"><title>recycle-stroke</title><path d="M50,31.42H37.8l-3.08-5.31A1.53,1.53,0,0,1,35.24,24l6.57-3.95h0a1.53,1.53,0,0,1,2.09.52l5.58,9.62A5.39,5.39,0,0,1,50,31.42Zm-.09,3.22H33.15V31.37h0a.86.86,0,0,0-1.53-.52l-6.06,7.39a2.81,2.81,0,0,0,0,3.57l6.1,7.38a.85.85,0,0,0,1,.26.84.84,0,0,0,.56-.81V45.37l7.63,0a5.29,5.29,0,0,0,2.68-.73,5.39,5.39,0,0,0,1.95-2l4-7.08a5.58,5.58,0,0,0,.43-.93ZM20.57,45.31a1.51,1.51,0,0,0,1.08-.46,1.53,1.53,0,0,0,.43-1.1l-.14-7.68h0a1.54,1.54,0,0,0-1.52-1.5H14.27L8.17,45.15a5.28,5.28,0,0,0,1.31.16ZM.73,35.59l4.1,7.06h0a5.94,5.94,0,0,0,.6.82L13.81,29l2.83,1.62h0a.85.85,0,0,0,1.23-1l-3.38-8.94a2.8,2.8,0,0,0-1.24-1.45,2.83,2.83,0,0,0-1.89-.33L1.94,20.37a.86.86,0,0,0-.71.7.85.85,0,0,0,.42.9L4.49,23.6.72,30.21a5.35,5.35,0,0,0,0,5.38ZM16.5,3.21,11,12.82A1.51,1.51,0,0,0,10.84,14a1.54,1.54,0,0,0,.72.92l6.72,3.72a1.53,1.53,0,0,0,1.13.13,1.56,1.56,0,0,0,.91-.7l3.06-5.33L17.3,2.16a5.5,5.5,0,0,0-.8,1ZM26,18.37l9.44,1.57h0a2.82,2.82,0,0,0,3.09-1.8l3.34-9h0a.86.86,0,0,0-.25-1,.88.88,0,0,0-1-.08L37.78,9.78,33.94,3.16A5.35,5.35,0,0,0,29.29.5l-8.15,0a5.68,5.68,0,0,0-1,.11l8.38,14.5-2.82,1.64h0a.88.88,0,0,0-.43.91.86.86,0,0,0,.72.69Z"/></svg>