<svg id="katman_1" data-name="katman 1" xmlns="http://www.w3.org/2000/svg" viewBox="0 0 50 50"><title>recycle-line</title><path d="M49.62,35.19l-1.11-1.91h0L44.08,25.6a.79.79,0,0,0-.47-.37.8.8,0,0,0-.59.08l-7.15,4.13a.77.77,0,0,0-.29,1.06l2.69,4.66H30.91V31.88a.77.77,0,0,0-.49-.72.78.78,0,0,0-.86.18l-7.81,8.19a.78.78,0,0,0,0,1.08l7.81,8.19a.76.76,0,0,0,.86.19.8.8,0,0,0,.49-.73V45H44a2.7,2.7,0,0,0,2.39-1.38L49.62,38a2.68,2.68,0,0,0,0-2.76ZM37.33,30.4l5.79-3.35,4,7a.7.7,0,0,1-.57,1.11H40.08Zm10.94,6.77L45,42.82a1.18,1.18,0,0,1-1,.6H30.13a.78.78,0,0,0-.78.78v2.11l-6-6.24,6-6.24V36a.78.78,0,0,0,.23.55.75.75,0,0,0,.55.23H46.59A2.24,2.24,0,0,0,48.27,36a1.16,1.16,0,0,1,0,1.19Zm-26-20.33L25,12.18l3.68,6.37L25.84,20.2a.78.78,0,0,0,.2,1.43L37,24.3l.19,0a.78.78,0,0,0,.75-.56L41.17,12.9A.79.79,0,0,0,40,12l-2.85,1.65L30.65,2.33A2.7,2.7,0,0,0,28.26,1H21.74a2.71,2.71,0,0,0-2.39,1.38L18.27,4.19h0l-4.46,7.74a.81.81,0,0,0-.08.59.79.79,0,0,0,.37.47l7.14,4.13a.78.78,0,0,0,1.07-.28ZM21.74,2.52h6.52a1.15,1.15,0,0,1,1,.6l6.92,12a.79.79,0,0,0,.47.37.84.84,0,0,0,.6-.08l1.83-1.06L36.69,22.6l-8.38-2,1.83-1.05a.8.8,0,0,0,.29-1.07L22.2,4.19a2.24,2.24,0,0,0-1.49-1.08,1.14,1.14,0,0,1,1-.59ZM15.55,12,19.63,5a.7.7,0,0,1,1.21,0l3.26,5.64-2.75,4.77Zm.65,6.64a.78.78,0,0,0-.93-.54l-11,2.67a.78.78,0,0,0-.2,1.44l2.84,1.64L.38,35.19A2.68,2.68,0,0,0,.38,38L3.64,43.6A2.7,2.7,0,0,0,6,45H17.11a.78.78,0,0,0,.78-.78V36a.77.77,0,0,0-.78-.78H11.73l3.68-6.38,2.84,1.64a.8.8,0,0,0,.88-.06.79.79,0,0,0,.26-.84Zm.13,18.06v6.69H8.18a.66.66,0,0,1-.61-.35.68.68,0,0,1,0-.7l3.26-5.64ZM15.51,27a.76.76,0,0,0-.59-.07.74.74,0,0,0-.47.36L6.22,41.59A2.23,2.23,0,0,0,6,43.42a1.17,1.17,0,0,1-1-.6L1.73,37.17a1.17,1.17,0,0,1,0-1.2L8.65,24a.78.78,0,0,0-.28-1.07L6.54,21.86l8.38-2,2.43,8.27Z"/></svg>