<svg id="katman_1" data-name="katman 1" xmlns="http://www.w3.org/2000/svg" viewBox="0 0 50 50"><title>cotton-stroke</title><path d="M38.64,13.53a13.84,13.84,0,0,0-27.33,0,13.81,13.81,0,0,0-1.52,26.8,22.44,22.44,0,0,1-2.56-5.88,5,5,0,0,1,3.84-6.18,22.2,22.2,0,0,1,4.31-.41,9.94,9.94,0,0,1,1.34.06A20.53,20.53,0,0,1,21.39,20,5.18,5.18,0,0,1,25,18.48a5,5,0,0,1,3.61,1.57A20.2,20.2,0,0,1,33.28,28c.46,0,.87-.06,1.34-.06a22.2,22.2,0,0,1,4.31.41,5,5,0,0,1,3.84,6.18,20.58,20.58,0,0,1-2.56,5.88,13.85,13.85,0,0,0-1.57-26.86Z"/><path d="M38.23,31.83a16.06,16.06,0,0,0-8,.35c0-.24,0-.47,0-.7,0-3.91-2.62-7.35-4.19-9a1.45,1.45,0,0,0-2.16,0c-1.51,1.63-4.19,5.07-4.19,9a3.35,3.35,0,0,0,.05.7,16.06,16.06,0,0,0-8-.35,1.44,1.44,0,0,0-1.1,1.8c.58,2.16,2.09,6.24,5.41,8.28a12.17,12.17,0,0,0,6.36,1.57v2a2.62,2.62,0,1,0,5.24,0v-2A11.57,11.57,0,0,0,34,41.91c3.33-2.1,4.84-6.12,5.42-8.28a1.45,1.45,0,0,0-1.16-1.8Z"/></svg>