<svg id="katman_1" data-name="katman 1" xmlns="http://www.w3.org/2000/svg" viewBox="0 0 50 50"><title>easy-clean</title><path d="M21.31,44.76A16.41,16.41,0,0,1,7.67,37.6C5.76,34.78,3.87,30,5.74,23.4c.35-1.26,1.43-5.09,8.07-14.16L20.13.61a1.46,1.46,0,0,1,2.36,0l6.32,8.63a75.74,75.74,0,0,1,6.47,10.15,1.46,1.46,0,0,1-.73,2l-.12.05a1.45,1.45,0,0,1-1.9-.68,71.39,71.39,0,0,0-6.19-9.69L22.49,5.79a1.46,1.46,0,0,0-2.36,0l-3.85,5.26C10,19.68,9,23.1,8.68,24.23c-1.54,5.5,0,9.37,1.52,11.66A13.4,13.4,0,0,0,21.31,41.7a14.88,14.88,0,0,0,1.89-.13,1.45,1.45,0,0,1,1.63,1.1l0,.11a1.46,1.46,0,0,1-1.2,1.81,16.78,16.78,0,0,1-2.35.17"/><path d="M43.33,36.94C33.14,38.53,31.86,39.81,30.27,50c-1.58-10.19-2.86-11.47-13-13.06,10.19-1.58,11.47-2.86,13.05-13,1.59,10.19,2.87,11.47,13.06,13"/><path d="M42.24,25.81C38.17,26.44,37.66,27,37,31c-.63-4.07-1.15-4.58-5.21-5.21,4.06-.64,4.58-1.15,5.21-5.22.63,4.07,1.14,4.58,5.21,5.22"/><path d="M44.26,31.71c-1.74.27-2,.49-2.24,2.23-.27-1.74-.49-2-2.23-2.23,1.74-.27,2-.49,2.23-2.24.28,1.75.5,2,2.24,2.24"/></svg>